<?xml version="1.0" encoding="utf-8"?>
<!-- Generator: Adobe Illustrator 19.2.1, SVG Export Plug-In . SVG Version: 6.00 Build 0)  -->
<svg version="1.1" id="Layer_1" xmlns="http://www.w3.org/2000/svg" xmlns:xlink="http://www.w3.org/1999/xlink" x="0px" y="0px"
	 viewBox="0 0 175 175" style="enable-background:new 0 0 175 175;" xml:space="preserve">
<g>
	<path d="M0,30.7h175v76.5h-10.9v43.7H0V30.7z M164.1,96.3V41.6H10.9V140h142.2V96.3H164.1z M32.8,52.5v10.9H21.9V52.5H32.8z
		 M32.8,74.4v10.9H21.9V74.4H32.8z M32.8,96.3v10.9H21.9V96.3H32.8z M32.8,118.1V129H21.9v-10.9H32.8z M76.6,52.5v32.8H43.8V52.5
		H76.6z M54.7,96.3v10.9H43.8V96.3H54.7z M54.7,118.1V129H43.8v-10.9H54.7z M65.6,107.2V96.3h10.9v10.9H65.6z M65.6,129v-10.9h10.9
		V129H65.6z M98.4,52.5v10.9H87.5V52.5H98.4z M98.4,74.4v10.9H87.5V74.4H98.4z M98.4,96.3v10.9H87.5V96.3H98.4z M98.4,118.1V129
		H87.5v-10.9H98.4z M142.2,52.5v21.9h-10.9V52.5H142.2z M142.2,96.3V129h-10.9V96.3H142.2z"/>
</g>
<g>
</g>
<g>
</g>
<g>
</g>
<g>
</g>
<g>
</g>
<g>
</g>
<g>
</g>
</svg>
